# xmcd
#
# Track frame offsets:
#	150
#	21019
#	34019
#	44414
#	60369
#	73336
#	86804
#	105057
#	118942
#	131919
#
# Disc length: 1939 seconds
#
# Revision: 2
# Processed by: cddbd v1.5.1PL2 Copyright (c) Steve Scherf et al.
# Submitted via: audiograbber 1.83.01
#
DISCID=8607910a
DTITLE=Kevin Spencer Family - The Class Of 2000
DYEAR=1900
DGENRE=Southern Gospel
TTITLE0=The Class Of 2000
TTITLE1=Touched By The Power Of God
TTITLE2=When The Redeemed Are Gathering In
TTITLE3=I Kept On Praying
TTITLE4=Stand By Me
TTITLE5=When All God's Children Get There
TTITLE6=I Am The Water
TTITLE7=His Light Is Shining
TTITLE8=Let's Walk Together
TTITLE9=My Jesus, I Love Thee
EXTD=
EXTT0=
EXTT1=
EXTT2=
EXTT3=
EXTT4=
EXTT5=
EXTT6=
EXTT7=
EXTT8=
EXTT9=
PLAYORDER=
